<svg id="レイヤー_1" data-name="レイヤー 1" xmlns="http://www.w3.org/2000/svg" viewBox="0 0 300 300"><defs><style>.cls-1{fill:#007a55;}.cls-2{fill:#fff;}.cls-3{fill:#ff4040;stroke:#fff;stroke-miterlimit:10;stroke-width:3px;}</style></defs><path class="cls-1" d="M300,180c0,22.65,0,47.72-9.23,70.18a71.15,71.15,0,0,1-40.59,40.59C227.72,300,202.65,300,180,300H120c-22.65,0-47.72,0-70.18-9.23a74.59,74.59,0,0,1-24.57-16,74.59,74.59,0,0,1-16-24.57C0,227.72,0,202.65,0,180V120C0,97.35,0,72.28,9.23,49.82a74.59,74.59,0,0,1,16-24.57,74.59,74.59,0,0,1,24.57-16C72.28,0,97.35,0,120,0h60c22.65,0,47.72,0,70.18,9.23a74.59,74.59,0,0,1,24.57,16,74.59,74.59,0,0,1,16,24.57C300,72.28,300,97.35,300,120Z"/><g id="_9luVuW.tif" data-name=" 9luVuW.tif"><path class="cls-2" d="M160,83a1.89,1.89,0,0,1,1.81,2,1.86,1.86,0,0,1-1,1.6c-23.85,12.91-35.7,36.23-37.41,60.53-.24,2.2-1.35,3.29-3.72,3.29L68,150.55c-3.24,0-4.54-1.7-4.5-4.85C65.59,95.46,118.7,81.12,160,83Z"/><path class="cls-2" d="M179.47,86C159.61,204.89,86.31,122.61,64.39,218.5c-.66,2.92,1.19,4.72,4.57,4.72h53.73c2.59,0,4.21-1.1,4.59-3.14C149.07,103.79,220.45,191,242.34,87.43c.51-2.42-.31-4.68-3.77-4.68H183.28A3.53,3.53,0,0,0,179.47,86Z"/></g><circle class="cls-3" cx="242.48" cy="236.63" r="37.5"/></svg>