<svg id="レイヤー_1" data-name="レイヤー 1" xmlns="http://www.w3.org/2000/svg" viewBox="0 0 300 300"><defs><style>.cls-1{fill:#fff;}.cls-2{fill:#ff4040;stroke:#fff;stroke-miterlimit:10;stroke-width:3px;}</style></defs><g id="_9luVuW.tif" data-name=" 9luVuW.tif"><path class="cls-1" d="M156.82,80.87a1.89,1.89,0,0,1,.81,3.56c-23.86,12.91-35.7,36.23-37.42,60.53-.24,2.2-1.34,3.29-3.72,3.29l-51.66.13c-3.23,0-4.53-1.7-4.49-4.85C62.45,93.29,115.55,79,156.82,80.87Z"/><path class="cls-1" d="M176.32,83.81C156.46,202.72,83.16,120.44,61.24,216.33c-.66,2.92,1.19,4.72,4.58,4.72h53.72c2.59,0,4.22-1.1,4.6-3.14,21.78-116.29,93.16-29.09,115.05-132.65.51-2.42-.31-4.68-3.77-4.68H180.13a3.54,3.54,0,0,0-3.81,3.22Z"/></g><circle class="cls-2" cx="239.33" cy="236.63" r="37.5"/></svg>