<svg id="レイヤー_1" data-name="レイヤー 1" xmlns="http://www.w3.org/2000/svg" viewBox="0 0 300 300"><defs><style>.cls-1{fill:#12c6c6;stroke:#fff;stroke-miterlimit:10;stroke-width:3px;}.cls-2{fill:#fefefe;}</style></defs><circle class="cls-1" cx="239.33" cy="236.63" r="37.5"/><g id="_9luVuW.tif" data-name=" 9luVuW.tif"><path class="cls-2" d="M159.68,53A2.62,2.62,0,0,1,160.8,58c-33.07,17.9-49.49,50.22-51.87,83.91-.33,3.06-1.87,4.57-5.16,4.57l-71.62.18c-4.48,0-6.28-2.35-6.23-6.72C28.84,70.25,102.47,50.37,159.68,53Z"/><path class="cls-2" d="M186.72,57.11C159.19,222,57.56,107.89,27.17,240.84c-.91,4,1.66,6.54,6.35,6.54H108c3.59,0,5.84-1.53,6.36-4.35C144.58,81.8,243.54,202.7,273.89,59.12c.7-3.35-.44-6.49-5.24-6.49H192a4.89,4.89,0,0,0-5.27,4.47Z"/></g></svg>