<svg id="レイヤー_1" data-name="レイヤー 1" xmlns="http://www.w3.org/2000/svg" viewBox="0 0 300 300"><defs><style>.cls-1{fill:#fff;}</style></defs><g id="_9luVuW.tif" data-name=" 9luVuW.tif"><path class="cls-1" d="M160,83a1.89,1.89,0,0,1,1.81,2,1.86,1.86,0,0,1-1,1.6c-23.85,12.91-35.7,36.23-37.41,60.53-.24,2.2-1.35,3.29-3.72,3.29L68,150.55c-3.24,0-4.54-1.7-4.5-4.85C65.59,95.46,118.7,81.12,160,83Z"/><path class="cls-1" d="M179.47,86C159.61,204.89,86.31,122.61,64.39,218.5c-.66,2.92,1.19,4.72,4.57,4.72h53.73c2.59,0,4.21-1.1,4.59-3.14C149.07,103.79,220.45,191,242.34,87.43c.51-2.42-.31-4.68-3.77-4.68H183.28A3.53,3.53,0,0,0,179.47,86Z"/></g></svg>